*******************************************************************************
                          Hornet's Nest (1970) DVDRip
*******************************************************************************

-------------------------------------------------------------------------------
                              General Information
-------------------------------------------------------------------------------
Type.................: Movie



Video Format.........: AVI
Video Bitrate........: 1495
Resolution...........: 720 x 392
Color................: 8 bit
FPS..................: 23.976
Source...............: DVD 1.85:1
Original Format......: NTSC
Genre................: War
IMDb Rating..........: 5.2
Movie Information....: http://www.imdb.com/title/tt0065850/

-------------------------------------------------------------------------------
                               Post Information
-------------------------------------------------------------------------------
Posted by............: RadioResearch
Posted on............: 3/26/2013

-------------------------------------------------------------------------------
                                 Release Notes
-------------------------------------------------------------------------------
SEEDBOX SUPPORTED!!

A commando unit is dropped behind the German lines in Italy and its mission is 
to blow up a strategic dam. However, the unit is ambushed and only its leader 
survives. He is picked up by a ragtag group of local youths, who strike a 
bargain with him--they will help him blow the dam if he will help them get 
revenge on the Germans, who have taken over their village and killed their 
parents. 

Enjoy!

RadioResearch

General
Complete name                            : G:Hornet's Nest 
(1970)HORNETS_NEST.Title1.avi
Format                                   : AVI
Format/Info                              : Audio Video Interleave
Format profile                           : OpenDML
File size                                : 1.15 GiB
Duration                                 : 1h 49mn
Overall bit rate                         : 1 495 Kbps
Movie name                               : HORNETS_NEST.Title1.DVDRip
Writing application                      : Lavf53.32.100
Original source form/Name                : HORNETS_NEST

Video
ID                                       : 0
Format                                   : MPEG-4 Visual
Format profile                           : Advanced Simple@L5
Format settings, BVOP                    : 2
Format settings, QPel                    : No
Format settings, GMC                     : No warppoints
Format settings, Matrix                  : Default (H.263)
Muxing mode                              : Packed bitstream
Codec ID                                 : XVID
Codec ID/Hint                            : XviD
Duration                                 : 1h 49mn
Bit rate                                 : 1 354 Kbps
Width                                    : 720 pixels
Height                                   : 392 pixels
Display aspect ratio                     : 1.85:1
Frame rate                               : 23.976 fps
Color space                              : YUV
Chroma subsampling                       : 4:2:0
Bit depth                                : 8 bits
Scan type                                : Progressive
Compression mode                         : Lossy
Bits/(Pixel*Frame)                       : 0.200
Stream size                              : 1.04 GiB (91%)
Writing library                          : XviD 64

Audio
ID                                       : 1
Format                                   : AC-3
Format/Info                              : Audio Coding 3
Mode extension                           : CM (complete main)
Format settings, Endianness              : Big
Codec ID                                 : 2000
Duration                                 : 1h 49mn
Bit rate mode                            : Constant
Bit rate                                 : 128 Kbps
Channel(s)                               : 2 channels
Channel positions                        : Front: L R
Sampling rate                            : 48.0 KHz
Bit depth                                : 16 bits
Compression mode                         : Lossy
Stream size                              : 101 MiB (9%)
Alignment                                : Aligned on interleaves
Interleave, duration                     : 32 ms (0.77 video frame)




-------------------------------------------------------------------------------
Generated with Cool NFO Creator - http://fly.to/coolbeans
-------------------------------------------------------------------------------
